<svg width="1485" height="1373" viewBox="0 0 1485 1373" fill="none"
  xmlns="http://www.w3.org/2000/svg">
  <path
    d="M851.673 3.09091C851.171 4.89675 848.911 13.9259 846.652 23.2131C841.379 44.3671 829.077 71.9706 815.268 93.1246C808.74 102.928 763.547 151.943 703.792 214.115C648.556 271.644 571.226 351.617 532.31 392.119C456.487 470.802 441.673 488.086 422.341 521.623C391.208 575.282 376.144 639.26 382.923 689.308C388.446 729.81 395.978 743.225 395.978 712.268C395.978 681.568 410.29 641.066 432.886 606.755C456.989 570.381 479.334 546.131 638.262 381.8C745.47 270.87 807.485 204.828 818.532 189.608C837.864 163.294 851.171 136.723 855.188 116.6C858.703 99.0581 858.954 3.60686 855.439 1.28508C853.933 0.51115 852.426 1.28508 851.673 3.09091Z"
    fill="black" />
  <path
    d="M851.924 165.616C851.171 167.422 848.409 177.483 845.396 188.06C829.077 245.847 826.566 248.942 640.773 441.135C460.755 627.135 450.21 639.518 424.35 692.661C393.97 754.318 390.455 812.362 413.554 860.346C421.588 876.598 432.635 892.077 434.644 889.755C435.397 888.981 433.639 881.242 431.129 872.213C425.605 854.154 424.601 826.809 428.869 807.977C433.388 788.629 454.478 745.804 471.551 722.071C487.62 699.885 515.74 669.702 700.026 478.541C758.777 417.401 812.004 360.388 818.532 351.617C834.6 330.205 849.414 301.311 853.933 282.479C858.703 264.163 859.707 162.52 855.439 162.52C853.933 162.52 852.426 164.068 851.924 165.616Z"
    fill="black" />
  <path
    d="M851.924 325.561C851.171 327.367 848.409 337.944 845.647 349.037C838.617 376.125 823.804 405.276 804.974 429.784C796.437 440.877 721.869 519.559 639.518 604.949C474.564 775.214 469.794 781.147 454.478 826.551C436.903 879.178 448.704 936.707 484.858 973.598C499.169 988.302 519.757 1001.2 523.272 997.589C524.025 996.557 520.51 991.656 515.237 986.238C510.216 980.821 502.433 968.954 497.914 959.667C491.135 944.962 490.13 940.319 490.13 920.97C490.381 890.271 499.169 864.732 522.267 829.389C528.042 820.36 586.542 757.671 663.37 678.473C735.176 603.918 799.952 536.07 806.982 527.557C834.098 494.536 849.665 465.9 855.188 439.071C858.703 421.786 858.954 326.077 855.439 323.755C853.933 322.982 852.426 323.755 851.924 325.561Z"
    fill="black" />
  <path
    d="M960.889 437.523C960.889 438.555 965.409 444.488 971.183 450.68C976.707 457.129 984.49 468.738 988.005 476.735C994.031 489.634 994.784 494.536 994.533 515.948C994.282 543.293 989.763 559.546 974.698 587.149C961.14 611.915 949.34 625.845 883.81 694.467C822.8 758.445 798.697 787.597 786.395 813.394C774.343 838.934 772.586 851.059 772.586 908.845C772.586 968.18 774.594 974.887 783.131 941.608C789.91 914.779 802.965 887.175 819.536 864.473C827.319 853.638 868.997 808.235 911.93 763.605C954.864 718.975 993.529 677.699 997.797 672.023C1039.98 615.526 1050.02 549.742 1024.66 495.825C1016.63 479.057 992.273 451.712 977.209 442.682C966.413 435.975 960.889 434.427 960.889 437.523Z"
    fill="black" />
  <path
    d="M1054.04 562.641C1067.59 607.529 1053.53 658.609 1011.86 715.879C1002.32 728.778 959.132 776.504 913.186 824.229C827.319 914.005 803.468 941.866 789.156 969.728C774.092 999.653 772.586 1008.68 772.586 1069.82C772.586 1124.77 774.594 1136.12 780.118 1113.68C788.403 1080.66 798.446 1057.44 816.021 1030.61C821.545 1022.1 866.486 973.34 915.696 922.26C1011.86 822.165 1035.71 793.272 1058.31 748.642C1065.08 734.969 1074.12 713.815 1077.89 701.691C1084.17 681.826 1084.92 676.151 1084.92 643.646C1084.92 603.144 1081.91 590.245 1064.08 561.867C1052.03 542.003 1048.01 542.261 1054.04 562.641Z"
    fill="black" />
  <path
    d="M1088.94 723.103C1088.94 755.092 1075.13 794.562 1051.02 830.937C1030.94 861.378 1001.06 895.173 915.696 984.174C829.83 1073.43 816.272 1088.65 800.455 1112.39L792.42 1124.77H833.345H874.521L951.098 1045.31C993.278 1001.72 1032.95 959.151 1039.22 950.638C1085.17 887.691 1107.26 820.36 1103 757.155C1101.24 730.842 1096.47 708.914 1091.95 707.366C1089.69 706.592 1088.94 711.236 1088.94 723.103Z"
    fill="black" />
  <path
    d="M569.218 1063.12C560.179 1064.41 481.343 1078.08 393.719 1093.56L234.54 1121.68L116.285 1243.18C40.7125 1321.09 -0.96538 1365.46 0.541049 1367.01C2.80069 1369.33 57.5343 1360.05 461.257 1288.33C539.089 1274.66 571.477 1273.11 605.121 1281.88C647.05 1292.97 682.2 1320.32 699.775 1354.89C704.545 1364.69 709.316 1372.43 710.571 1372.43C711.575 1372.43 712.077 1330.89 711.826 1280.07L711.073 1187.98L664.123 1187.2L616.921 1186.69V1157.28C616.921 1132.77 617.675 1127.61 620.939 1126.32C623.198 1125.55 644.539 1124.77 668.642 1124.77C712.329 1124.77 712.329 1124.77 712.329 1118.84C712.329 1097.17 697.264 1076.53 675.17 1067.76C663.119 1062.86 655.084 1061.83 623.198 1061.31C602.61 1061.05 578.256 1061.83 569.218 1063.12Z"
    fill="black" />
  <path
    d="M911.679 1148.51C816.523 1247.31 793.425 1276.2 779.867 1312.58C774.343 1327.8 770.075 1372.43 774.092 1372.43C775.348 1372.43 780.369 1364.69 785.139 1354.89C809.995 1305.61 862.218 1276.98 928.25 1276.72C958.128 1276.46 983.737 1280.85 1411.56 1356.95C1456.25 1364.95 1482.87 1368.56 1484.37 1367.01C1485.88 1365.46 1444.45 1321.09 1368.63 1243.18L1250.37 1121.68L1216.73 1115.74C1067.59 1089.17 990.516 1075.76 986.499 1075.76C983.737 1075.76 954.361 1104.13 911.679 1148.51Z"
    fill="black" />
  <path
    d="M1435.67 1170.43C1404.53 1187.2 1412.32 1232.86 1446.96 1237.25C1465.29 1239.57 1482.36 1225.38 1484.62 1205.78C1487.89 1178.95 1458.76 1157.79 1435.67 1170.43ZM1465.54 1175.08C1469.56 1177.4 1474.58 1182.56 1476.84 1186.69C1487.64 1208.36 1473.58 1233.12 1450.48 1233.12C1427.38 1233.12 1413.32 1208.36 1424.12 1186.69C1431.4 1172.5 1450.48 1167.08 1465.54 1175.08Z"
    fill="black" />
  <path
    d="M1437.93 1202.16C1437.93 1214.29 1438.93 1222.8 1440.44 1222.8C1441.94 1222.8 1442.95 1219.19 1442.95 1215.06C1442.95 1209.13 1444.2 1207.32 1447.72 1207.32C1450.48 1207.32 1453.24 1209.65 1454.24 1212.23C1456 1217.9 1462.53 1224.09 1464.54 1222.03C1465.29 1221.25 1464.04 1217.13 1461.53 1212.74C1458.01 1206.55 1457.51 1204.23 1460.02 1201.65C1464.29 1197.26 1463.79 1184.88 1459.02 1183.07C1456.76 1182.3 1451.23 1181.53 1446.46 1181.53H1437.93V1202.16ZM1457.51 1192.36C1458.26 1197 1449.47 1203.45 1445.46 1200.87C1443.95 1200.1 1442.95 1196.49 1442.95 1192.88C1442.95 1187.2 1443.95 1186.43 1449.73 1187.2C1453.74 1187.72 1457.01 1189.78 1457.51 1192.36Z"
    fill="black" />
  <path
    d="M774.343 1188.49C773.339 1189.27 772.586 1211.45 772.586 1237.51C772.586 1290.39 774.845 1296.58 783.131 1264.34C788.654 1242.41 799.45 1217.13 810.246 1200.62C814.264 1194.17 817.779 1188.49 817.779 1187.72C817.779 1185.91 776.101 1186.43 774.343 1188.49Z"
    fill="black" />
</svg>