<svg width="24" height="24" viewBox="0 0 24 24" fill="none" xmlns="http://www.w3.org/2000/svg">
  <path fill-rule="evenodd" clip-rule="evenodd"
    d="M17.2081 5.54081C17.5987 5.15028 18.2318 5.15028 18.6223 5.54081C19.0129 5.93133 19.0129 6.5645 18.6223 6.95502L13.4958 12.0815L18.6223 17.2081C19.0129 17.5986 19.0129 18.2318 18.6223 18.6223C18.2318 19.0128 17.5987 19.0128 17.2081 18.6223L12.0816 13.4958L6.95509 18.6223C6.56456 19.0128 5.9314 19.0128 5.54087 18.6223C5.15035 18.2318 5.15035 17.5986 5.54087 17.2081L10.6674 12.0815L5.54087 6.95502C5.15035 6.5645 5.15035 5.93133 5.54087 5.54081C5.9314 5.15028 6.56456 5.15028 6.95509 5.54081L12.0816 10.6673L17.2081 5.54081Z"
    fill="white" />
</svg>